PathFileType	4	(X/Y/Z)	D:\Share\Shared_Data\Ergonomics\Sit To Stand Pertubation\S3\Unperturbed.trc
DataRate	CameraRate	NumFrames	NumMarkers	Units	OrigDataRate	OrigDataStartFrame	OrigNumFrames	
100	100	16	18	m	100	5839	251
Frame#	Time	R_Thigh			R_ASIS			R_Pelvis			V_Sacral			L_Pelvis			L_ASIS			Clavical			R_Acromium			L_Acromium			Sternum			Torso			R_Thigh_Med			R_Thigh_Lat			R_Shank_Med			R_Shank_Lat			R_Shank			R_Heel			R_Toe			
		X1	Y1	Z1	X2	Y2	Z2	X3	Y3	Z3	X4	Y4	Z4	X5	Y5	Z5	X6	Y6	Z6	X7	Y7	Z7	X8	Y8	Z8	X9	Y9	Z9	X10	Y10	Z10	X11	Y11	Z11	X12	Y12	Z12	X13	Y13	Z13	X14	Y14	Z14	X15	Y15	Z15	X16	Y16	Z16	X17	Y17	Z17	X18	Y18	Z18	

5839	58.38	0.3956178	0.66723022	0.09826075	0.3769025	0.93430164	0.13517587	0.27038626	0.95464856	0.18888962	0.17266869	0.99978217	-0.0047851124	0.28317319	0.97014404	-0.20552188	0.38077505	0.9330058	-0.14645285	0.42577371	1.3648687	0.0035247838	0.37961725	1.4235728	0.17145219	0.37696909	1.4295728	-0.1482682	0.44222174	1.2865039	0.0057651572	0.42900079	1.3521924	-0.063489826	0.34469354	0.46170471	0.039823624	0.32104407	0.45627042	0.14499348	0.26021512	0.10494201	0.090502495	0.23593265	0.10087029	0.16982628	0.25234029	0.28616522	0.17092253	0.18134889	0.051725246	0.11882978	0.40079883	0.053615665	0.14096159
5840	58.39	0.39651862	0.66607288	0.097903175	0.38145663	0.93592316	0.13514343	0.27449286	0.95556616	0.18838533	0.17641396	0.99923663	-0.0052452202	0.28730774	0.97034521	-0.2059016	0.38543805	0.93436957	-0.14664557	0.42340378	1.3675404	0.0037332828	0.37602823	1.4252961	0.17182835	0.37344363	1.4319178	-0.14786591	0.44099365	1.2895751	0.0059790702	0.42693762	1.3551675	-0.063360542	0.34058743	0.46170746	0.03878093	0.31671863	0.45679431	0.14396822	0.26008145	0.10484172	0.090556702	0.23565324	0.10086693	0.16978111	0.24938948	0.28651776	0.17040439	0.18123161	0.051531876	0.11885899	0.40070847	0.053673237	0.14093208
5841	58.4	0.39729721	0.66472034	0.098024803	0.38591632	0.93727911	0.13509457	0.27843225	0.95625537	0.18774625	0.18009901	0.99844952	-0.0056890121	0.29133719	0.9702251	-0.20625893	0.38994214	0.9354082	-0.14685909	0.42104755	1.3696941	0.0038857331	0.37249341	1.4265215	0.17214807	0.37003833	1.4337061	-0.14753828	0.43975894	1.2921339	0.0061656008	0.4248905	1.3576252	-0.063260265	0.33657764	0.46163068	0.038108456	0.31232065	0.4572634	0.14325748	0.25998495	0.10477949	0.090716904	0.23535555	0.10085334	0.16982312	0.2463588	0.28684134	0.170097	0.18110638	0.051349606	0.11892052	0.40058881	0.053730888	0.14092024
5842	58.41	0.39798001	0.66319446	0.098593765	0.39025571	0.93835461	0.13502708	0.28221747	0.95669843	0.18704269	0.18370343	0.99743378	-0.0061058044	0.29525214	0.96981464	-0.20659947	0.39428882	0.93613275	-0.14709904	0.41871518	1.3713408	0.0039732451	0.36903604	1.4272745	0.17240646	0.36676828	1.4349408	-0.14730423	0.43852921	1.2941869	0.0063123665	0.42284958	1.3595686	-0.063204296	0.33275693	0.46145737	0.037757092	0.30803442	0.45765195	0.14282779	0.25990302	0.10474936	0.090977173	0.23504654	0.10082124	0.16994806	0.24337395	0.28711313	0.16998421	0.18097731	0.051185677	0.11901746	0.40044193	0.053785042	0.14092511
5843	58.42	0.3986077	0.66153583	0.099548706	0.39444229	0.93913593	0.13494324	0.28586728	0.95688123	0.18636012	0.18720432	0.99621539	-0.0064887919	0.29904819	0.96915363	-0.2069274	0.39848294	0.93655566	-0.14736563	0.41641953	1.3725001	0.003990999	0.36567215	1.4275862	0.17260274	0.36364139	1.4356366	-0.14718021	0.43731567	1.2957494	0.006409359	0.42080637	1.3610074	-0.063203552	0.32924612	0.46117911	0.037661098	0.3040914	0.45793268	0.14262953	0.25982953	0.10473977	0.091317123	0.23474852	0.10076437	0.17013943	0.24060118	0.28731149	0.17003557	0.18085004	0.051051952	0.11915261	0.40027567	0.053829838	0.14094388
5844	58.43	0.39923926	0.65980737	0.10079648	0.39843832	0.93961682	0.13485066	0.28938977	0.95680237	0.18577524	0.19057704	0.99483362	-0.0068354387	0.30272501	0.96828918	-0.20724583	0.40252808	0.9366925	-0.14765135	0.41417496	1.3732003	0.0039384208	0.3624057	1.4274937	0.17274023	0.3606561	1.4358208	-0.14718045	0.4361297	1.2968479	0.0064501996	0.41875894	1.3619597	-0.06326305	0.3261908	0.46079987	0.037746075	0.30074774	0.45808136	0.142603	0.25976462	0.10473707	0.091700043	0.23449178	0.10068261	0.17036804	0.23823418	0.28741989	0.17020996	0.1807321	0.050964569	0.11932771	0.40010464	0.053857334	0.14097295
5845	58.44	0.39995532	0.65809595	0.102214	0.4022048	0.9398053	0.13476332	0.29276907	0.95648126	0.18533253	0.19379739	0.99333899	-0.0071482964	0.30628464	0.96727362	-0.20755884	0.40642224	0.93656476	-0.14794043	0.41199353	1.3734816	0.0038175886	0.35923178	1.4270422	0.17282745	0.35780438	1.4355359	-0.1473163	0.43498325	1.2975205	0.0064328609	0.41671179	1.3624535	-0.063382164	0.32375143	0.46033765	0.037935413	0.29824689	0.45808157	0.14268437	0.25970105	0.10472952	0.092072258	0.23430424	0.10058313	0.17059628	0.23646732	0.28742975	0.17045831	0.18063319	0.050941948	0.11954104	0.39994897	0.053858932	0.14100935
5846	58.45	0.40085446	0.65650458	0.10365633	0.40570663	0.93972961	0.13470187	0.2959689	0.95595892	0.18504379	0.19684525	0.9917887	-0.0074347539	0.30972864	0.96616431	-0.20787076	0.4101557	0.93620447	-0.14820853	0.40988272	1.3733997	0.0036321037	0.3561405	1.4262877	0.17287733	0.35507526	1.4348395	-0.14759497	0.43388806	1.2978179	0.006359868	0.41467511	1.3625315	-0.063555977	0.32207645	0.45982336	0.038154552	0.2967728	0.45792999	0.14281133	0.25962143	0.10471044	0.092370369	0.23420345	0.10047897	0.17078552	0.23545589	0.28734442	0.17072574	0.18056444	0.050999882	0.11978417	0.39983212	0.053828362	0.14105167
5847	58.46	0.40204379	0.65513635	0.10497116	0.40891974	0.93944202	0.13469269	0.29894354	0.9552915	0.18489546	0.19970906	0.99024225	-0.0077057123	0.31305634	0.96502148	-0.20818208	0.41371194	0.93565759	-0.14842537	0.40784549	1.373027	0.0033873475	0.35312021	1.4252988	0.17290475	0.35245523	1.4338046	-0.14801852	0.43285358	1.2978037	0.006237843	0.41266428	1.3622512	-0.063777431	0.3212713	0.45929556	0.038337646	0.29640558	0.45763943	0.14292966	0.25951083	0.10467926	0.092537399	0.23419264	0.10038676	0.17090184	0.23526996	0.28718185	0.17095494	0.18053596	0.051143135	0.12003787	0.39977478	0.053764599	0.14109891
5848	58.47	0.40362613	0.65407245	0.10601852	0.41183606	0.93901678	0.13476328	0.30164999	0.95454291	0.18485355	0.20238756	0.98875555	-0.0079735479	0.31626376	0.9639057	-0.20848602	0.41707224	0.93498395	-0.14855942	0.40588254	1.3724493	0.0030906584	0.3501601	1.4241559	0.17292218	0.34992935	1.4325186	-0.14858192	0.43188474	1.2975544	0.0060762606	0.41069968	1.3616852	-0.064039337	0.32137711	0.45879059	0.038436573	0.29709464	0.45723907	0.14299992	0.2593761	0.1046404	0.09254158	0.23426334	0.10032403	0.17092081	0.23585924	0.2869751	0.17109296	0.18055359	0.05135376	0.12026763	0.39978815	0.053672867	0.14114903
5849	58.48	0.40568179	0.65335223	0.1066926	0.41446475	0.93854419	0.13493555	0.30405902	0.9537746	0.18487053	0.20488753	0.98737415	-0.0082493305	0.31934283	0.96287292	-0.20876825	0.42022147	0.93425513	-0.14858452	0.40399478	1.3717607	0.0027509906	0.34725217	1.4229489	0.17293489	0.34748608	1.4310784	-0.14927002	0.43097992	1.297155	0.005885735	0.40880539	1.3609182	-0.064335144	0.32236252	0.45833356	0.038426929	0.29866425	0.45677121	0.14300003	0.25925156	0.10459977	0.09238826	0.23439919	0.10030531	0.17083372	0.2370513	0.2867684	0.17110016	0.18061615	0.051578217	0.12041771	0.39986996	0.053563766	0.14119864
5850	58.49	0.4082442	0.65296356	0.10694047	0.41683142	0.93811792	0.1352178	0.3061658	0.95303473	0.184895	0.20721912	0.98612604	-0.00853895	0.32228079	0.96196832	-0.20900793	0.42315158	0.93354889	-0.14848581	0.40218561	1.3710526	0.0023787756	0.3443941	1.421771	0.17293697	0.34512256	1.4295818	-0.15005511	0.4301308	1.2966912	0.0056765423	0.40700711	1.3600413	-0.064658073	0.32412454	0.45793399	0.038307507	0.30085211	0.45628445	0.1429234	0.25918155	0.10456098	0.092115959	0.23457826	0.10033762	0.17065157	0.23859302	0.286608	0.17095912	0.180716	0.051738235	0.12042244	0.40000705	0.053450939	0.14124405
5851	58.5	0.41128146	0.65284955	0.10676993	0.41897479	0.93781976	0.13559895	0.30799573	0.95235242	0.18488219	0.20939264	0.98501849	-0.0088385067	0.32506116	0.96122052	-0.20917963	0.42586264	0.93293982	-0.14826442	0.40046249	1.3704042	0.0019858307	0.34159286	1.4207096	0.17291031	0.34284918	1.4281201	-0.15089674	0.42932578	1.29624	0.0054580474	0.40532904	1.3591411	-0.064999352	0.32649454	0.45758749	0.038095058	0.30336746	0.45582401	0.14277657	0.25919852	0.10452446	0.091779099	0.23477803	0.10041787	0.17040126	0.24022044	0.2865304	0.17067886	0.18084222	0.051789154	0.12025423	0.40017996	0.053347687	0.14128276
5852	58.51	0.41469193	0.65292725	0.10624203	0.42094092	0.93770728	0.13604742	0.30960376	0.95173633	0.18480292	0.21141875	0.98403741	-0.0091322155	0.32766437	0.96063818	-0.20926024	0.42836273	0.93248834	-0.14793913	0.39883649	1.369869	0.0015847516	0.33886703	1.4198374	0.17282765	0.3406904	1.4267709	-0.15174516	0.42855612	1.2958591	0.005238873	0.40379041	1.3582891	-0.065346863	0.32925623	0.45728137	0.037818039	0.30595038	0.45542282	0.14257698	0.25931448	0.10448964	0.091430061	0.23498048	0.100535	0.17011652	0.24172668	0.28655338	0.17029201	0.1809838	0.05176157	0.11995654	0.40036829	0.053263828	0.14131398
5853	58.52	0.41831714	0.6531106	0.10545241	0.42277795	0.93780573	0.13651585	0.31106598	0.95118158	0.1846506	0.21331024	0.98315216	-0.0093949585	0.33006992	0.96020959	-0.2092388	0.43066525	0.93223193	-0.14754443	0.39732028	1.3694706	0.0011876248	0.33624704	1.419205	0.17266008	0.33868225	1.4255916	-0.15254868	0.4278197	1.2955819	0.0050270019	0.40240176	1.3575353	-0.065685364	0.33218021	0.45700134	0.037510895	0.30841556	0.45509799	0.14234721	0.25951804	0.10445824	0.091107338	0.235172	0.10067554	0.16982874	0.24300211	0.28667261	0.16984587	0.18113065	0.051721817	0.11960802	0.40055417	0.053203857	0.14133838
5854	58.53	0.42196765	0.6533291	0.10451092	0.42453198	0.93810736	0.13695088	0.31246686	0.9506781	0.18444328	0.21508252	0.98232208	-0.0095974855	0.33225919	0.95990747	-0.20911954	0.43278558	0.93218152	-0.14712558	0.39592508	1.3692043	0.00080465198	0.33377252	1.4188365	0.17238647	0.33686688	1.4246166	-0.15326378	0.42711935	1.2954198	0.0048294325	0.40116339	1.3569072	-0.06599881	0.33506021	0.45673651	0.037209728	0.31066763	0.45485223	0.14210881	0.25977609	0.10443555	0.090830948	0.23534224	0.10082764	0.16956059	0.24403795	0.2868652	0.16939204	0.181274	0.051715603	0.11927161	0.40072479	0.053167236	0.14135695
